<svg xmlns="http://www.w3.org/2000/svg" viewBox="0 0 128 128"><circle fill="#55ACEE" cx="64" cy="64" r="64"/><path fill="#FFF" d="M99.84 41.77c-2.637 1.17-5.47 1.96-8.446 2.315 3.035-1.82 5.368-4.702 6.465-8.136-2.84 1.684-5.99 2.908-9.34 3.568-2.68-2.86-6.503-4.644-10.733-4.644-8.123 0-14.706 6.584-14.706 14.705 0 1.152.13 2.275.38 3.35-12.22-.613-23.057-6.467-30.31-15.364-1.266 2.17-1.99 4.698-1.99 7.393 0 5.1 2.595 9.6 6.54 12.24-2.41-.077-4.677-.74-6.66-1.84v.185c0 7.125 5.068 13.068 11.796 14.42-1.234.336-2.534.515-3.875.515-.946 0-1.868-.092-2.766-.263 1.872 5.842 7.303 10.093 13.738 10.212-5.033 3.944-11.374 6.295-18.265 6.295-1.187 0-2.357-.07-3.507-.205 6.508 4.172 14.238 6.606 22.543 6.606 27.05 0 41.842-22.408 41.842-41.842 0-.638-.015-1.27-.043-1.902 2.873-2.073 5.367-4.663 7.338-7.612z"/></svg>