<svg xmlns="http://www.w3.org/2000/svg" viewBox="0 0 128 128"><circle fill="#25D366" cx="64" cy="64" r="64"/><g fill="#FFF"><path d="M28.16 100.013l5.064-18.495c-3.124-5.413-4.767-11.552-4.765-17.842.007-19.68 16.017-35.69 35.69-35.69 9.547.005 18.508 3.722 25.246 10.47 6.74 6.744 10.448 15.71 10.444 25.248-.008 19.678-16.02 35.69-35.69 35.69h-.015c-5.973-.002-11.843-1.5-17.055-4.345l-18.92 4.963zm19.796-11.425l1.084.643c4.554 2.704 9.775 4.133 15.098 4.137h.012c16.35 0 29.658-13.308 29.664-29.666.003-7.925-3.08-15.378-8.68-20.985-5.6-5.607-13.05-8.696-20.972-8.7-16.363 0-29.67 13.307-29.677 29.663-.003 5.604 1.566 11.064 4.536 15.786l.706 1.123-2.996 10.946 11.226-2.945z"/><path fill-rule="evenodd" clip-rule="evenodd" d="M82.13 72.19c-.223-.372-.816-.594-1.708-1.043-.893-.445-5.277-2.602-6.094-2.9-.817-.297-1.412-.446-2.008.446-.593.894-2.302 2.903-2.822 3.497-.52.595-1.04.67-1.933.225-.89-.447-3.764-1.39-7.17-4.428-2.652-2.364-4.442-5.285-4.96-6.177-.522-.893-.057-1.376.39-1.82.4-.4.89-1.042 1.337-1.562.445-.52.594-.894.892-1.49.297-.593.148-1.115-.075-1.56-.224-.447-2.007-4.837-2.75-6.622-.724-1.738-1.46-1.503-2.006-1.53-.52-.027-1.116-.033-1.71-.033-.594 0-1.56.224-2.378 1.116-.818.892-3.12 3.05-3.12 7.44 0 4.39 3.194 8.63 3.64 9.224.446.595 6.288 9.603 15.235 13.465 2.128.918 3.79 1.467 5.085 1.878 2.135.68 4.08.583 5.616.354 1.715-.257 5.277-2.157 6.02-4.24.743-2.084.743-3.87.52-4.242z"/></g></svg>